#!OML:ASF F:\VICON\USERDATA\INSTALL\rory3\rory3.ASF
:FULLY-SPECIFIED
:DEGREES
144
root 0.176972752095871 17.913354292225552 40.99508128098395 2.941006129573121 -0.04488458773094517 -0.3210810685098475
lfemur 14.275482147075003 0.13642052729677312 -26.676399316102266
ltibia 22.54320678298138
lfoot 9.12398252345066 -8.703587358164969
ltoes -24.871177497053804
rfemur -52.83556812623951 -4.286351487680306 21.542833094464225
rtibia 78.0558516309013
rfoot -9.461111310202707 -3.52983097210359
rtoes -17.84773754394326
lowerback nan -2.332935374611071 -2.384682822233857
upperback -2.0108737495866804 -3.0015277642071743 1.7818169262943844
thorax -10.206827155380164 -1.0844460326068177 4.936687401870261
lowerneck -20.114455788739885 -2.3235623069954694 -2.4211085987649605
upperneck 13.294662300765767 -3.307096128280847 4.272218556616393
head 7.879245657510097 -1.063727895575943 0.9217048891519573
lclavicle -3.656316041921943e-14 -5.955947413049304e-15
lhumerus -37.170858115553045 -10.536491881903949 93.2309697416243
lradius 131.46115890494167
lwrist 39.54071919935481
lhand -24.65226710159997 1.4141920715343752
lfingers nan
lthumb 1.5108793373588167 30.944071597361443
rclavicle -3.021802617945592e-14 -7.700132210890097e-16
rhumerus -66.894913185098 5.661480334239975 -94.75768759384577
rradius 111.8359750149084
rwrist -8.041383665668949
rhand -19.06614301375985 nan
rfingers nan
rthumb 8.245910038413752 11.913596057642467
145
root 0.05248635898171944 17.927495112429817 40.149762478648626 3.374011839094749 -1.8370645584099343 -2.44087202914245
lfemur 15.289541108843892 0.7550109595498158 -24.633905700620097
ltibia 21.341091496390288
lfoot 11.981601899281534 -9.10676142284937
ltoes -18.942289500963966
rfemur -51.9030471931295 -1.8217705723879016 24.051366869210142
rtibia 72.61559676469561
rfoot -9.130302776422855 -4.814170284770807
rtoes -18.80974278420018
lowerback nan -1.8440270518389696 -1.1678359352257202
upperback -2.627917454813601 -2.0714865544487306 2.48424858015753
thorax -10.671785046513014 -0.630110820232864 4.739375789787597
lowerneck -18.71842149616994 -2.269058183171409 -2.4641812794373235
upperneck 13.639345702202354 -3.3309100468380763 4.279511856467908
head 7.811175407379405 -1.062325553460422 0.938884857489434
lclavicle -3.3918360450654924e-14 -1.8130227994771298e-14
lhumerus -38.371861232654226 -10.887238786198639 93.20758043374325
lradius 130.8319460802149
lwrist 37.91876510188302
lhand -23.105157589862188 0.3382048456047555
lfingers nan
lthumb 2.9907429510702794 29.832998079739472
rclavicle -2.726420406187491e-14 -1.2559050171680456e-14
rhumerus -68.30240622060873 4.525211374226817 -94.00194108965266
rradius 111.87433205858227
rwrist -7.1475759550267295
rhand -19.141943465037834 nan
rfingers nan
rthumb 8.166719272313014 12.349867831007309
146
root 0.07500173193115323 18.009066791841157 41.045432540931714 3.6611106786722063 -2.3654152028161697 -3.0405084641637723
lfemur 16.559210953484893 0.3456790909153413 -24.4186218312014
ltibia 20.308871788580163
lfoot 14.476575495635709 -8.642046119869807
ltoes -13.821422961482444
rfemur -51.67682522168901 -1.224658484710831 24.54191062098151
rtibia 67.40511982716731
rfoot -8.89863162565456 -4.1581211674724745
rtoes -21.378153542832482
lowerback nan -2.0580304145080737 -0.598434037692865
upperback -3.0272302494089756 -2.1444779232251934 2.7050853285821503
thorax -11.074896100652587 -0.6078238542003223 4.542510833297401
lowerneck -19.101289624824897 -2.3232538120358694 -2.5338067283353443
upperneck 14.477692372818101 -3.3819364266136653 4.2013037338366885
head 8.066673676930167 -1.0732470866758503 0.9320065221894811
lclavicle -2.8420693887169002e-14 -2.5599372060394275e-14
lhumerus -39.08484070545372 -11.223083617910348 93.12874619463673
lradius 130.09166703795492
lwrist 35.63561237631268
lhand -22.617962535388543 -1.505818184341175
lfingers nan
lthumb 3.436862585024592 27.93225046637164
rclavicle -2.1804848611681143e-14 -1.9940835207484245e-14
rhumerus -68.92204537227047 3.9563727621451257 -92.99744410919385
rradius 111.9349717873769
rwrist -6.809931324045156
rhand -19.02699729065582 nan
rfingers nan
rthumb 8.253458283278954 12.640662782363993
147
root 0.09762414820558335 18.081898067978695 40.90644094630551 3.9609656282562935 -2.6251009415491584 -3.0688466833254338
lfemur 17.561555436933066 -0.27970118927792315 -24.81475954738878
ltibia 19.923690717707565
lfoot 16.065955644536817 -6.3586584185536354
ltoes -12.137254282631165
rfemur -51.52641313272326 -0.8941009367245418 24.423357086563094
rtibia 62.063826260176754
rfoot -8.203501199067087 -2.7422973546861273
rtoes -25.70344633132172
lowerback nan -2.120765475022735 -0.5872881328933486
upperback -2.8264174267686615 -2.196913843199985 2.821406118838402
thorax -10.034437594476335 -0.5592240544069764 4.350711425964672
lowerneck -19.870055704210106 -2.3221608385826897 -2.677015369443052
upperneck 15.224935595995223 -3.3015320488908646 3.9827705460019995
head 8.338437171201935 -1.0550173279200359 0.883936509071318
lclavicle -2.293283065587318e-14 7.493378500704035e-15
lhumerus -39.21789282969394 -11.920014766237928 93.26664165585439
lradius 129.41649225452807
lwrist 33.93196959269849
lhand -23.097754640971303 -2.224940464939995
lfingers nan
lthumb 2.9780762390331095 27.189277665273952
rclavicle -1.6014499106120356e-14 1.3381762915020888e-14
rhumerus -68.83795355172839 3.327896343499946 -91.75703093556895
rradius 112.2146937689548
rwrist -5.114610527723237
rhand -19.532491895294143 nan
rfingers nan
rthumb 7.74775495391153 12.63796423898331
148
root 0.1142571802582924 18.128465237983978 40.52063062736736 4.107353029346599 -2.8473267722590174 -2.8429574275619
lfemur 18.541556881445903 -0.6792303033595172 -25.46737809219021
ltibia 19.695983148554028
lfoot 17.034291106541307 -3.363350462099012
ltoes -11.719440746076613
rfemur -50.829128518608684 -0.7107325891348908 23.916523925459167
rtibia 56.852909016650194
rfoot -7.319842957322652 -1.1872499735255007
rtoes -27.23056701886433
lowerback nan -2.1307106310452264 -0.8095921890116222
upperback -2.3702744298144722 -2.2782300325575244 2.7788109257210296
thorax -8.624209101878657 -0.6027293847041966 4.31686541544509
lowerneck -19.8707152802526 -1.9179562898045737 -2.4649102978581743
upperneck 15.040037023733879 -2.7360039621974113 3.6124058212830295
head 8.270781906284432 -0.8297453201892326 0.7868041318349662
lclavicle -1.9275018066116198e-14 -1.8273575773040928e-14
lhumerus -38.98382686066833 -12.66992942842651 93.23317304155617
lradius 128.5778129099563
lwrist 33.136911281689216
lhand -23.449896914996096 -2.175462132307394
lfingers nan
lthumb 2.6477266867399876 27.228028715460532
rclavicle -1.217306748555807e-14 -1.2185831923607316e-14
rhumerus -68.75359840337786 2.477745655185343 -90.6020671229848
rradius 112.79920026298316
rwrist -3.0873261389384403
rhand -19.84544046613832 nan
rfingers nan
rthumb 7.424590682826277 12.24572798396391
